<svg xmlns="http://www.w3.org/2000/svg" width="62.104" height="87.667" viewBox="0 0 62.104 87.667">
  <defs>
    <style>
      .cls-1 {
        fill: #131313;
      }

      .cls-2 {
        fill: #1572b6;
      }

      .cls-3 {
        fill: #33a9dc;
      }

      .cls-4 {
        fill: #fff;
      }

      .cls-5 {
        fill: #ebebeb;
      }
    </style>
  </defs>
  <g id="css3-original-wordmark" transform="translate(-19.516 -1.207)">
    <path id="Path_1" data-name="Path 1" class="cls-1" d="M73.907,4.452H68.752l5.36,5.817v2.769H63.072V9.8h5.36l-5.36-5.817V1.207H73.907Zm-13.024,0H55.728l5.36,5.817v2.769H50.048V9.8h5.36l-5.36-5.817V1.207H60.883Zm-12.9.133H42.425V9.661h5.562v3.378H38.471V1.207h9.516V4.585Z" transform="translate(-5.723)"/>
    <path id="Path_2" data-name="Path 2" class="cls-2" d="M25.168,89.286,19.516,25.893h62.1L75.963,89.275,50.53,96.327,25.168,89.286Z" transform="translate(0 -7.454)"/>
    <path id="Path_3" data-name="Path 3" class="cls-3" d="M64,93.18l20.55-5.7,4.835-54.163H64V93.18Z" transform="translate(-13.432 -9.696)"/>
    <path id="Path_4" data-name="Path 4" class="cls-4" d="M64,59.413H74.288L75,51.452H64V43.677H83.5l-.186,2.086L81.4,67.188H64Z" transform="translate(-13.431 -12.823)"/>
    <path id="Path_5" data-name="Path 5" class="cls-5" d="M56.692,91.457l-.034.01L48,89.128l-.554-6.2h-7.8l1.09,12.208,15.926,4.421.036-.01V91.457Z" transform="translate(-6.077 -24.674)"/>
    <path id="Path_6" data-name="Path 6" class="cls-4" d="M73.636,76.886,72.7,87.3l-8.671,2.341v8.089l15.939-4.417L80.084,92l1.353-15.111h-7.8Z" transform="translate(-13.44 -22.85)"/>
    <path id="Path_7" data-name="Path 7" class="cls-5" d="M55.615,43.677v7.774H36.835L36.678,49.7l-.354-3.941-.186-2.086H55.615Zm-.027,15.737v7.775H47.038l-.156-1.747L46.528,61.5l-.186-2.086Z" transform="translate(-5.019 -12.823)"/>
  </g>
</svg>
