<svg xmlns="http://www.w3.org/2000/svg" width="62.109" height="87.667" viewBox="0 0 62.109 87.667">
  <defs>
    <style>
      .cls-1 {
        fill: #e44d26;
      }

      .cls-2 {
        fill: #f16529;
      }

      .cls-3 {
        fill: #ebebeb;
      }

      .cls-4 {
        fill: #fff;
      }
    </style>
  </defs>
  <g id="html5-original-wordmark" transform="translate(-19.811 -1.627)">
    <path id="Path_8" data-name="Path 8" class="cls-1" d="M25.463,89.54l-5.652-63.4H81.92L76.262,89.53,50.827,96.581Z" transform="translate(0 -7.287)"/>
    <path id="Path_9" data-name="Path 9" class="cls-2" d="M64,93.384l20.552-5.7L89.387,33.52H64Z" transform="translate(-13.135 -9.48)"/>
    <path id="Path_10" data-name="Path 10" class="cls-3" d="M55.754,60.321H45.465l-.71-7.963h11V44.583h-19.5l.186,2.087L38.354,68.1h17.4Zm0,20.192-.034.009-8.659-2.339-.554-6.2H38.7L39.79,84.192l15.927,4.422.036-.011Z" transform="translate(-4.888 -12.768)"/>
    <path id="Path_11" data-name="Path 11" d="M28.034,1.627h3.951v3.9H35.6v-3.9h3.952V13.449H35.6V9.49H31.986v3.959H28.034V1.627ZM44.747,5.548H41.268V1.627h10.91V5.548H48.7v7.9H44.747v-7.9ZM53.91,1.627h4.12l2.535,4.154L63.1,1.627h4.122V13.449H63.282V7.589l-2.718,4.2H60.5l-2.72-4.2v5.86H53.91V1.627Zm15.275,0h3.952V9.541h5.557V13.45H69.186V1.627Z" transform="translate(-2.444 0)"/>
    <path id="Path_12" data-name="Path 12" class="cls-4" d="M63.962,60.321V68.1h9.574l-.9,10.084-8.672,2.341V88.61L79.9,84.192l.117-1.314,1.827-20.469.19-2.087H63.962Zm0-15.738v7.775H82.743l.155-1.748.355-3.941.186-2.086Z" transform="translate(-13.123 -12.768)"/>
  </g>
</svg>
