<svg xmlns="http://www.w3.org/2000/svg" width="74.499" height="74.5" viewBox="0 0 74.499 74.5">
  <defs>
    <style>
      .cls-1 {
        fill: #f0db4f;
      }

      .cls-2 {
        fill: #323330;
      }
    </style>
  </defs>
  <g id="javascript-original" transform="translate(-1.408 -1.408)">
    <path id="Path_13" data-name="Path 13" class="cls-1" d="M1.408,1.408h74.5v74.5H1.408Z"/>
    <path id="Path_14" data-name="Path 14" class="cls-2" d="M83.132,81.133c-.546-3.4-2.762-6.254-9.327-8.915-2.281-1.048-4.823-1.8-5.58-3.527a3.845,3.845,0,0,1-.134-2.181c.489-1.976,2.847-2.592,4.716-2.025A5.19,5.19,0,0,1,75.837,67.3c3.215-2.082,3.208-2.068,5.453-3.5a13.939,13.939,0,0,0-1.8-2.407c-1.934-2.16-4.568-3.272-8.782-3.187l-2.195.284A9.959,9.959,0,0,0,63.233,61.6c-3.527,4-2.521,11,1.77,13.887,4.228,3.173,10.438,3.9,11.232,6.862.772,3.633-2.67,4.809-6.09,4.391-2.521-.524-3.923-1.806-5.439-4.135-2.79,1.615-2.79,1.615-5.658,3.264a12.591,12.591,0,0,0,2.535,3.449c5.4,5.474,18.9,5.2,21.323-3.08a10.247,10.247,0,0,0,.226-5.107ZM55.23,58.642H48.261l-.029,18.015c0,3.831.2,7.344-.425,8.42-1.019,2.117-3.661,1.855-4.865,1.444a5.979,5.979,0,0,1-2.57-2.669,3.511,3.511,0,0,0-.4-.637l-5.666,3.47a11.2,11.2,0,0,0,4.108,4.7,13.525,13.525,0,0,0,9.957,1.225A8.793,8.793,0,0,0,54,88.208c1.587-2.925,1.246-6.465,1.232-10.381C55.265,71.438,55.23,65.05,55.23,58.642Z" transform="translate(-13.321 -22.993)"/>
  </g>
</svg>
