<svg xmlns="http://www.w3.org/2000/svg" width="72.51" height="76.598" viewBox="0 0 72.51 76.598">
  <defs>
    <style>
      .cls-1 {
        fill: #0868ac;
      }

      .cls-2 {
        fill: #131b28;
      }
    </style>
  </defs>
  <g id="jquery-original-wordmark" transform="translate(-6.273 -1.634)">
    <path id="Path_27" data-name="Path 27" class="cls-1" d="M25.8,13.433c-4.617,6.635-4.043,15.269-.515,22.32l.258.5.165.318.1.183.184.329c.109.193.222.384.337.577l.192.317q.191.307.391.611l.166.257c.184.274.372.548.566.817l.016.021.1.129c.168.231.34.46.516.686l.194.247c.156.2.315.391.477.587l.182.217c.217.255.438.51.664.759l.013.014.026.028c.22.241.446.476.675.712l.216.218c.177.178.357.354.539.528l.22.21c.243.229.488.453.739.672l.011.01.129.109q.331.287.671.566l.278.222c.185.148.371.294.559.437l.3.227q.311.229.627.45l.228.162.063.045c.2.138.405.271.609.4l.264.176c.314.2.632.394.954.584l.264.149c.237.136.475.271.716.4l.4.2.512.266.118.057.21.1c.268.128.539.254.812.376l.171.077q.469.205.947.394l.231.09c.295.114.593.225.894.331l.112.039c.329.116.662.222,1,.327l.241.072a9.73,9.73,0,0,0,1.029.29C66.887,55.329,73.373,37.84,73.373,37.84c-5.448,7.1-15.116,8.968-24.277,6.885-.347-.079-.684-.187-1.022-.286l-.255-.078q-.5-.152-.985-.32l-.135-.048c-.292-.1-.58-.211-.868-.322l-.244-.1c-.315-.124-.628-.254-.937-.389l-.187-.084c-.266-.12-.529-.241-.791-.367l-.229-.11c-.205-.1-.408-.206-.612-.311l-.408-.214c-.248-.132-.491-.27-.733-.411l-.247-.138q-.483-.285-.955-.585l-.257-.171c-.228-.147-.455-.3-.679-.452l-.219-.154c-.216-.152-.43-.307-.642-.463l-.285-.215c-.195-.149-.388-.3-.579-.453l-.258-.207q-.366-.3-.722-.609l-.079-.066c-.257-.225-.509-.457-.759-.69l-.214-.206c-.185-.175-.367-.352-.545-.534l-.214-.214q-.341-.349-.669-.707l-.033-.036c-.231-.252-.457-.511-.678-.772L33.48,34.8c-.165-.2-.328-.4-.488-.6l-.179-.223c-.193-.249-.38-.5-.564-.751C27.163,26.29,25.335,16.721,29.4,8.863M40.128,7.842c-3.339,4.8-3.158,11.237-.553,16.318a21.194,21.194,0,0,0,1.477,2.465,11.675,11.675,0,0,0,1.719,2.147c.241.265.492.524.749.778l.2.2c.249.242.5.48.765.711l.031.027.008.008c.29.254.59.5.894.74l.2.158c.305.234.616.463.935.683l.027.021.427.281.2.134c.228.146.458.288.693.425l.1.058c.2.116.407.23.612.342l.218.113.428.222.065.03c.295.144.591.285.894.416l.2.082c.242.1.487.2.733.3l.314.116c.224.083.447.159.673.234l.3.1a7.557,7.557,0,0,0,.973.281C70.652,38.075,74.632,24.8,74.632,24.8,71.045,29.969,64.1,32.434,56.683,30.51q-.494-.13-.977-.282l-.293-.095c-.229-.073-.457-.153-.683-.235l-.308-.115q-.371-.143-.735-.3l-.2-.084q-.457-.2-.9-.418l-.451-.229-.26-.134c-.192-.1-.383-.212-.571-.323l-.136-.077c-.234-.136-.463-.276-.691-.422l-.209-.139-.447-.3c-.318-.219-.627-.448-.932-.681l-.21-.166a20.784,20.784,0,0,1-7.04-10.034A15.572,15.572,0,0,1,42.858,3.99m9.324-.325a10.047,10.047,0,0,0-.8,9.694,13.65,13.65,0,0,0,7.836,7.323l.428.148.188.06a5.233,5.233,0,0,0,.614.177c9.519,1.84,12.1-4.884,12.788-5.875C70.98,18.448,67.179,19.23,62.515,18.1c-.368-.089-.773-.222-1.128-.349a14.008,14.008,0,0,1-1.34-.556A13.936,13.936,0,0,1,57.7,15.76c-4.173-3.167-6.765-9.206-4.042-14.126" transform="translate(-6.03)"/>
    <path id="Path_28" data-name="Path 28" class="cls-2" d="M44.009,94.353H41.355a.349.349,0,0,0-.325.262l-.942,4.359-.942,4.359a.348.348,0,0,1-.324.262H36.944c-1.858,0-1.644-1.286-1.263-3.047l.011-.053.041-.222.008-.041.085-.452.091-.484.1-.493.428-2.093.429-2.093a.211.211,0,0,0-.214-.263H33.933a.345.345,0,0,0-.323.263l-.586,2.778-.585,2.779v0l-.054.259c-.675,3.079-.5,6.017,3.17,6.109l.107,0h5.755a.348.348,0,0,0,.324-.262l1.241-5.834,1.241-5.834A.209.209,0,0,0,44.009,94.353Zm-28.422-.031H12.673a.353.353,0,0,0-.327.261l-.276,1.22-.276,1.22a.205.205,0,0,0,.209.261h2.937a.349.349,0,0,0,.325-.262l.267-1.219.267-1.219A.208.208,0,0,0,15.587,94.323Zm-.845,3.8H11.8a.353.353,0,0,0-.327.261l-.413,1.828-.412,1.827-.115.524-.4,1.865-.4,1.866c-.031.144-.094.376-.141.516,0,0-.549,1.633-1.471,1.614l-.116,0-.8-.014h0a.351.351,0,0,0-.329.256l-.3,1.281-.3,1.28a.205.205,0,0,0,.2.264c.523.006,1.7.019,2.4.019,2.3,0,3.52-1.277,4.3-4.951l.911-4.217.855-3.955a.208.208,0,0,0-.212-.261Zm54.085-.989-.122-.5-.12-.515-.061-.26c-.239-.928-.939-1.462-2.46-1.462l-2.368,0-2.181,0H59.061a.347.347,0,0,0-.323.262l-.109.512-.128.605-.036.17-1.1,5.175-1.049,4.912a1.147,1.147,0,0,0-.024.393c.018.072.3.131.448.131h2.213a1.389,1.389,0,0,0,.415-.059c.08-.033.2-.322.229-.466l.393-1.946.394-1.947v0l.053-.259.477-2.236.421-1.975a.348.348,0,0,1,.323-.262l6.964,0a.2.2,0,0,0,.207-.26Zm8.965-4.547-.536,0H75.026a.568.568,0,0,0-.419.222l-4.929,7.221c-.083.122-.178.1-.21-.039L69.1,98.4a.353.353,0,0,0-.328-.261H65.608a.191.191,0,0,0-.195.257l1.42,4.975a1.179,1.179,0,0,1,.007.517l-.619,2.407a.2.2,0,0,0,.2.259h3.132a.364.364,0,0,0,.334-.259l.619-2.407a1.583,1.583,0,0,1,.228-.474l8-10.621c.089-.118.041-.214-.106-.213ZM52.616,98.812v0a.323.323,0,0,1-.313.277H48.285a.172.172,0,0,1-.189-.211l0-.009h0l0-.013.018-.068A2.517,2.517,0,0,1,50.751,97.1c1.654,0,1.977.807,1.865,1.716Zm-1.179-4.637c-5.157,0-6.379,3.13-7.065,6.29-.685,3.221-.627,6.231,4.71,6.231h.845l.641,0h.011c1.409-.006,2.823-.016,3.4-.021a.347.347,0,0,0,.32-.264l.216-1.056.042-.205.257-1.26a.21.21,0,0,0-.214-.263H49.8c-1.909,0-2.475-.507-2.266-2h7.673a.316.316,0,0,0,.279-.2l.018-.067h0c1.139-4.3.812-7.188-4.066-7.188ZM27.063,98.8l-.073.257h0l-.579,2.052-.579,2.052a.374.374,0,0,1-.341.258H22.426c-2.325,0-2.891-1.819-2.325-4.5.566-2.743,1.676-4.448,3.964-4.621,3.128-.236,3.753,1.963,3,4.5Zm2.1,4.462a34.37,34.37,0,0,0,1.773-5.535c.448-2.712-.911-6.648-6.157-6.648-5.216,0-7.482,3.756-8.347,7.84-.864,4.114.268,7.72,5.455,7.691l4.092-.015,3.824-.014a.37.37,0,0,0,.335-.26l.666-2.541a.2.2,0,0,0-.2-.261l-.639,0-.639,0a.164.164,0,0,1-.182-.19Zm25.825-2.349a.176.176,0,1,1-.176-.175A.176.176,0,0,1,54.991,100.909Z" transform="translate(0 -33.269)"/>
  </g>
</svg>
